<?xml version="1.0" encoding="UTF-8" standalone="no"?>
<!-- Created with Inkscape (http://www.inkscape.org/) -->
<svg xmlns:rdf="http://www.w3.org/1999/02/22-rdf-syntax-ns#" xmlns="http://www.w3.org/2000/svg" height="1522" width="3099" version="1.1" xmlns:cc="http://creativecommons.org/ns#" xmlns:dc="http://purl.org/dc/elements/1.1/">
 <metadata>
  <rdf:RDF>
   <cc:Work rdf:about="">
    <dc:format>image/svg+xml</dc:format>
    <dc:type rdf:resource="http://purl.org/dc/dcmitype/StillImage"/>
    <dc:title/>
   </cc:Work>
  </rdf:RDF>
 </metadata>
 <path d="m1924.9,1520.1c-0.204-0.1864-7.796-0.6261-16.871-0.9772-9.075-0.351-17.85-0.8131-19.5-1.0267s-6.825-0.6767-11.5-1.0291c-4.675-0.3523-9.85-0.8255-11.5-1.0514s-5.25-0.6362-8-0.9117c-8.5595-0.8575-32.488-4.4305-44-6.5698-6.05-1.1244-12.35-2.2813-14-2.5709-5.8956-1.0349-28.231-6.6778-41.5-10.485-31.649-9.0803-65.375-23.016-89.699-37.063-4.6525-2.6868-8.8735-4.8852-9.3802-4.8852-0.5066,0-0.9211-0.45-0.9211-1s-0.4199-1-0.9332-1c-1.0508,0-20.857-12.965-23.111-15.128-0.8009-0.7687-2.8061-2.2516-4.4561-3.2954-9.0903-5.7502-36.886-31.765-47.5-44.457-2.4749-2.9593-4.9498-5.8894-5.4998-6.5112-12.432-14.055-32.499-47.033-41.747-68.608-7.894-18.414-11.637-29.135-16.641-47.663-2.8949-10.718-7.4263-32.628-8.5492-41.337-0.3191-2.475-0.8349-6.525-1.1462-9-0.3114-2.475-0.7479-5.625-0.9702-7-0.383-2.3694-1.4638-21.322-1.871-32.81-0.1035-2.9207,0.2131-5.5584,0.7037-5.8616,1.1131-0.6879,208.62-0.7602,209.31-0.073,0.2754,0.2754,0.7104,3.5931,0.9668,7.3728,0.2564,3.7796,0.7311,8.4471,1.0549,10.372,0.3238,1.925,0.7731,5.075,0.9985,7,1.3729,11.726,7.3986,31.709,13.569,45,3.5327,7.6092,11.293,21.016,14.47,25,22.815,28.606,46.888,45.668,81.853,58.014,7.9469,2.806,17.496,5.709,21.112,6.418,1.0384,0.2036,4.588,1.0618,7.888,1.9071,3.3,0.8454,8.025,1.8124,10.5,2.1491s5.175,0.7985,6,1.0261c2.2533,0.6219,6.7676,1.273,14,2.0192,3.575,0.3688,6.7584,0.8274,7.0742,1.019,1.1473,0.696,28.839,1.8012,45.426,1.8129,23.947,0.017,50.844-1.5676,65.5-3.8589,3.1957-0.4996,10.766-1.5981,14-2.0316,1.375-0.1843,4.525-0.7917,7-1.3499,2.475-0.5581,6.075-1.2873,8-1.6204,10.894-1.885,29.34-7.5328,42.902-13.136,33.964-14.031,56.735-34.19,69.446-61.477,5.3136-11.408,8.1946-21.854,10.174-36.891,1.3259-10.073,0.4187-31.352-1.6839-39.5-8.5307-33.056-30.164-54.5-73.838-73.192-11.385-4.8725-39.652-14.449-49.5-16.77-0.55-0.1297-1.675-0.4786-2.5-0.7756-3.5836-1.2897-39.846-10.59-47.719-12.238-0.9795-0.2051-6.5059-1.5464-12.281-2.9806-5.775-1.4343-13.65-3.3009-17.5-4.148s-7.675-1.6912-8.5-1.8758-8.475-1.9816-17-3.9933c-40.264-9.5017-68.706-16.138-73-17.032-0.825-0.1719-12.975-3.0857-27-6.4751-14.025-3.3895-26.175-6.3125-27-6.4956s-5.325-1.3189-10-2.5239-9.175-2.3418-10-2.5261c-3.3885-0.7572-31.199-8.8079-40.5-11.724-5.5-1.7245-10.45-3.2385-11-3.3644-1.1286-0.2583-15.727-5.5448-28.5-10.32-4.675-1.748-11.314-4.5028-14.753-6.1215-3.4389-1.6188-6.498-2.9432-6.798-2.9432-0.8122,0-25.4-12.409-29.449-14.862-1.925-1.1664-4.175-2.4222-5-2.7907-0.825-0.3686-7.5245-4.6826-14.888-9.5867l-13.388-8.9166-4.3861,4.8281c-16.621,18.295-35.998,36.162-50.787,46.828-1.5252,1.1-3.3661,2.5625-4.0909,3.25-0.7247,0.6875-1.7624,1.25-2.3058,1.25-0.5435,0-1.1381,0.3753-1.3215,0.834-0.1833,0.4587-5.0738,3.9462-10.868,7.75-13.693,8.9895-14.197,9.3088-15.966,10.099-0.825,0.3689-1.7253,0.9285-2.0008,1.2437-1.7339,1.9839-33.404,17.373-46.999,22.838-22.641,9.1007-55.997,19.234-71.986,21.867-1.3829,0.2278-4.7643,0.8601-7.5143,1.4052-10.819,2.1443-20.166,3.5838-35.5,5.4672-12.068,1.4822-17.008,1.8713-38,2.9929-22.425,1.1982-58.387,0.7101-76.5-1.0382-19.835-1.9144-31.302-3.3823-47-6.0162-32.584-5.4672-71.31-16.513-99-28.238-6.05-2.5619-11.225-4.6847-11.5-4.7175-0.9505-0.1132-27.519-13.401-33-16.504-10.387-5.8812-22.51-13.376-30.5-18.857-8.2165-5.6361-22.609-16.094-23.5-17.075-0.275-0.3028-2.75-2.3481-5.5-4.5451-17.016-13.594-38.939-35.106-52.997-52.006-2.7453-3.3-5.824-6.9-6.8416-8s-3.2405-4.025-4.9397-6.5-3.3442-4.725-3.6555-5c-2.2242-1.9648-28.066-39.991-28.066-41.299,0-0.1929-2.7422-5.2671-6.0939-11.276-11.815-21.183-24.174-48.264-32.365-70.925-1.9882-5.5-3.8912-10.675-4.2289-11.5-0.33769-0.825-0.72014-1.95-0.84988-2.5-0.12975-0.55-1.6248-5.275-3.3224-10.5s-4.7024-15.35-6.6775-22.5c-3.6747-13.303-4.0029-14.614-5.0717-20.261-0.94107-4.9723-2.0108-4.68-2.076,0.5673-0.0583,4.689-1.0863,19.388-1.7816,25.473-0.20237,1.7712-0.70033,6.5954-1.1066,10.72-0.92977,9.4406-0.95767,9.6733-1.7387,14.5-0.35602,2.2-0.91239,6.025-1.2364,8.5-0.324,2.475-0.98328,6.3-1.4651,8.5-0.4818,2.2-1.1335,5.575-1.4483,7.5-0.31477,1.925-0.79715,4.625-1.072,6-0.27481,1.375-0.68369,3.4734-0.90863,4.6631-1.1566,6.1174-8.9229,34.104-11.887,42.837-7.7778,22.913-19.352,48.275-30.029,65.797-2.2778,3.7385-4.5915,7.5924-5.1415,8.5642-1.1222,1.983-8.3645,12.731-10.175,15.1-18.393,24.07-38.685,45.007-57.219,59.038-1.8162,1.375-4.4956,3.4563-5.9541,4.6251-4.5474,3.6441-15.927,11.24-26.952,17.99-11.283,6.9079-40.871,21.843-45.45,22.942-1.5125,0.363-2.75,1.0612-2.75,1.5516s-0.3375,0.7901-0.75,0.6661c-0.4125-0.1241-5.025,1.397-10.25,3.3801-13.564,5.1482-22.925,8.2373-35.5,11.715-11.132,3.0783-19.809,5.3606-20.23,5.3208-0.12671-0.012-3.0517,0.6511-6.5,1.4736-3.4483,0.8224-7.3946,1.6976-8.7696,1.9448s-3.1362,0.6756-3.9138,0.952-3.0276,0.7322-5,1.0128-5.8362,0.9322-8.5862,1.448c-6.5805,1.2342-32.905,5.0048-38,5.4429-13.448,1.1565-20.34,1.7836-22.84,2.0782-20.98,2.4732-100.54,2.4843-113.36,0.016-0.99473-0.1915-5.5968-0.6612-10.227-1.0436-4.63-0.3825-9.1285-0.827-9.9966-0.988-0.86816-0.1609-3.8285-0.5871-6.5785-0.9471-2.75-0.3601-6.35-0.8333-8-1.0517-25.402-3.3615-64.953-12.917-90-21.744-6.05-2.1321-11.45-4.0126-12-4.1789-1.5678-0.4741-4.0919-1.5013-18-7.3251-11.686-4.8932-34.691-16.273-42.139-20.844-1.5734-0.9657-4.4357-2.7209-6.3607-3.9004-15.559-9.534-36.142-24.439-47.362-34.298-10.524-9.2471-31.943-31.653-38.464-40.238-3.9693-5.225-8.2197-10.814-9.4455-12.419-1.2258-1.6054-2.8226-4.1418-3.5486-5.6365-0.72596-1.4947-2.1885-3.6499-3.25-4.7893-1.0615-1.1395-1.9301-2.5084-1.9301-3.0421s-0.5625-1.5856-1.25-2.3374c-2.5728-2.8138-14.913-27.304-20.294-40.276-5.461-13.164-13.403-37.284-16.051-48.75-0.22234-0.9625-0.62926-2.65-0.90426-3.75-2.3739-9.4957-3.4558-14.915-5.8889-29.5-1.3763-8.25-2.7518-16.912-3.0567-19.25-2.0469-15.692-2.3322-18.259-3.0833-27.75-0.34821-4.4-0.88019-10.025-1.1822-12.5-0.30198-2.475-0.72708-165.94-0.94467-363.25l-0.39562-358.75h111.03c105.04,0,111.03,0.0943,111.11,1.75,0.044,0.9625,0.20601,159.25,0.35998,351.75s0.52249,351.35,0.81892,353,0.83171,5.7,1.1895,9c0.87596,8.0788,2.4386,18.022,3.6932,23.5,0.56684,2.475,1.2366,5.625,1.4884,7,0.25178,1.375,0.9125,4.075,1.4683,6,0.55577,1.925,1.6703,5.9202,2.4768,8.8783,1.6171,5.9314,9.3857,26.329,10.33,27.122,0.32741,0.275,2.104,3.65,3.9479,7.5,8.3437,17.421,24.187,37.328,41.278,51.866,9.9025,8.4232,30.116,20.105,44.871,25.931,6.5406,2.5828,22.035,7.3074,26.795,8.1707,1.4077,0.2552,4.8419,0.9243,7.6314,1.4869,22.537,4.5445,64.685,4.5062,93.072-0.085,3.3-0.5337,7.7611-1.2017,9.9135-1.4845,7.3153-0.961,30.05-7.1216,39.762-10.774,15.346-5.7721,22.866-9.5749,36.301-18.356,13.036-8.5211,21.333-16.186,34.505-31.875,7.9965-9.5248,23.577-39.928,25.436-49.634,0.13118-0.685,1.0059-3.7205,1.9437-6.7455,4.4673-14.409,7.8896-36.331,9.1327-58.5,0.24672-4.4,0.46169-164.94,0.47769-356.75l0.0291-348.75h111,111l0.0634,173.25c0.0394,107.77,0.4146,172.37,0.99262,170.93,0.51108-1.2744,1.1345-3.2994,1.3854-4.5,0.25086-1.2006,0.70418-3.1953,1.0074-4.4328,0.30319-1.2375,0.7295-3.0375,0.94735-4,2.0418-9.0213,13.34-44.346,18.278-57.15,16.261-42.162,35.514-78.762,58.705-111.6,3.8842-5.5,7.3021-10.225,7.5953-10.5,0.29326-0.275,2.8067-3.4838,5.5855-7.1306,23.407-30.72,66.275-70.83,94.44-88.367,2.475-1.541,4.725-3.0946,5-3.4525,0.7978-1.0382,9.0981-6.0279,27.5-16.532,14.844-8.473,35.605-18.14,54-25.144,10.444-3.9764,10.836-4.1174,11.5-4.1299,0.275-0.005,2.3-0.78735,4.5-1.7381,2.2-0.95078,7.6-2.7686,12-4.0396s10.469-3.0703,13.488-3.9985c3.0183-0.9282,6.6183-1.8882,8-2.1334,1.3818-0.24516,4.7624-1.0903,7.5124-1.8782,5.2124-1.4932,25.355-5.6505,34-7.0174,2.75-0.43479,5.225-0.85696,5.5-0.93814,0.275-0.0812,3.2-0.50914,6.5-0.95101,3.3-0.44186,6.675-0.91916,7.5-1.0606,2.1629-0.37096,13.892-1.6965,18-2.0342,1.925-0.15825,8.225-0.66311,14-1.1219,20.096-1.5966,76.48-0.89782,95,1.1773,1.925,0.2157,6.425,0.66726,10,1.0035,6.0911,0.57284,23.79,2.9566,30.5,4.1079,1.65,0.2831,4.125,0.68024,5.5,0.88253,24.428,3.5939,66.918,15.497,94.5,26.472,15.608,6.2107,41.26,18.512,52.5,25.176,4.125,2.4455,8.175,4.7601,9,5.1435,1.7394,0.80838,12.724,8.0268,23.046,15.144,26.406,18.208,56.594,46.039,75.993,70.059,3.5536,4.4,6.6987,8.225,6.9891,8.5,2.7877,2.6396,20.795,28.755,27.926,40.5,8.4853,13.976,22.016,41.411,28.463,57.711,6.3073,15.948,14.798,42.595,17.061,53.547,3.5649,17.25,5.5456,27.685,6.0249,31.742,0.3249,2.75,0.7862,6.125,1.0251,7.5s0.7064,5.5375,1.0389,9.25l0.6046,6.75h-108.01-108.01l-1.6021-5.75c-3.2082-11.515-11.67-36.95-14.925-44.865-4.2954-10.444-14.535-30.785-15.717-31.22-0.5006-0.18448-0.6558-0.74698-0.3449-1.25s0.089-0.91459-0.4938-0.91459c-0.5824,0-1.059-0.43209-1.059-0.96021,0-0.81407-9.5174-15.557-11-17.04-0.275-0.275-2.7452-3.2-5.4893-6.5-7.5102-9.0315-24.614-25.5-26.485-25.5-0.4297,0-1.3857-0.72834-2.1245-1.6185-2.1854-2.6332-14.678-10.703-25.229-16.298-9.2137-4.8854-29.129-13.236-34.686-14.544-1.3672-0.32182-8.4517-2.1166-15.743-3.9884-7.2916-1.8718-15.392-3.6494-18-3.9503-2.6084-0.30083-5.6426-0.73263-6.7426-0.95955-16.937-3.494-62.394-4.1836-81.5-1.2363-14.657,2.261-15.352,2.3968-26,5.0768-30.225,7.6074-61.036,22.697-84.5,41.383-46.45,36.992-78.612,90.513-96.83,161.14-3.7683,14.608-4.8317,19.501-8.1501,37.5-1.851,10.04-2.2787,12.768-2.9782,19-0.3087,2.75-0.7581,6.125-0.9987,7.5-0.6134,3.5058-1.4616,11.276-2.1286,19.5-0.3122,3.85-0.7336,8.35-0.9364,10-2.4824,20.198-2.4615,87.072,0.035,113,0.739,7.6731,1.4253,14.454,2.0749,20.5,0.6229,5.797,3.9685,28.397,4.9591,33.5,0.7654,3.9421,3.4324,17.356,4.0488,20.364,4.0433,19.727,15.978,57.054,23.863,74.636,16.281,36.302,33.908,62.754,57.541,86.351,11.516,11.498,22.338,19.979,41,32.131,7.0111,4.5652,32.968,16.61,37.5,17.4,0.55,0.096,1.45,0.4512,2,0.7893,2.344,1.4412,21.055,6.3362,31.99,8.3688,28.278,5.2565,63.603,5.79,92.51,1.3973,8.0674-1.226,35.817-7.7003,37.487-8.7463,0.5573-0.349,1.627-0.7274,2.377-0.8409,2.9211-0.442,21.053-8.0251,28.924-12.097,30.46-15.756,55.1-37.573,75.542-66.884,3.1188-4.4722,5.6705-8.4411,5.6705-8.8199,0-0.3787,1.3128-2.5966,2.9172-4.9286,8.4005-12.21,25.417-53.516,26.622-64.62,0.1491-1.375,0.5709-7.675,0.9374-14,1.0628-18.345,1.4659-21.546,6.0705-48.211,0.2575-1.4912,1.8494-8.0162,3.5374-14.5,1.6881-6.4838,3.2256-12.464,3.4167-13.289,0.191-0.825,1.0907-3.525,1.9992-6s1.8176-5.175,2.0201-6c0.3415-1.3911,3.6946-10.499,6.4429-17.5,0.6477-1.65,1.187-3.0925,1.1986-3.2055,0.161-1.5791,13.606-27.436,18.43-35.444,24.275-40.298,59.224-75.197,98.471-98.329,11.828-6.9714,13.38-7.8162,24.938-13.571,34.903-17.379,75.739-30.476,117-37.524,1.375-0.23488,3.85-0.65363,5.5-0.93056s3.9442-0.68779,5.0982-0.91302,4.4848-0.7125,7.4018-1.0828c2.917-0.37032,6.0228-0.80252,6.9018-0.96043,3.9941-0.71755,26.727-3.0743,38.598-4.0016,29.839-2.3307,92.451-2.3952,106.5-0.10962,1.375,0.22368,6.775,0.71033,12,1.0814,5.225,0.37111,10.625,0.82249,12,1.0031,60.135,7.8976,105.13,20.418,148,41.187,12.074,5.8486,37.263,20.174,37.833,21.516,0.1834,0.43123,0.9334,0.78405,1.6667,0.78405s1.4833,0.3375,1.6667,0.75c0.1833,0.4125,2.3583,2.0904,4.8333,3.7286,4.3467,2.8771,18.989,13.923,23.889,18.021,44.031,36.827,77.346,84.88,97.448,140.56,4.9695,13.764,9.8174,30.531,11.26,38.945,0.3301,1.925,0.8062,3.8358,1.058,4.2462,0.5475,0.8925,0.6575,1.4538,2.7918,14.254,0.9171,5.5,1.8615,11.125,2.0986,12.5s0.679,5.425,0.982,9c0.3031,3.575,0.7352,8.3,0.9603,10.5s0.508,7.375,0.6286,11.5l0.2193,7.5-105.06,0.2545c-94.623,0.2293-105.12,0.099-105.66-1.3129-0.3308-0.8621-0.8584-4.1266-1.1723-7.2545-0.8308-8.277-5.2016-27.339-8.5867-37.449-9.1179-27.231-22.66-47.233-45.708-67.509-12.806-11.266-48.838-29.27-65.314-32.636-1.2842-0.2623-3.8515-0.9371-5.705-1.4996-6.1268-1.8591-23.68-5.3146-33.13-6.5218-2.475-0.3162-5.4593-0.763-6.6319-0.993-14.092-2.7643-76.243-2.8044-90.466-0.058-1.3209,0.255-4.2017,0.688-6.4017,0.9623-3.7517,0.4676-15.259,2.5542-22,3.9891-1.65,0.3512-5.475,1.373-8.5,2.2707-3.025,0.8976-5.95,1.7188-6.5,1.8248-3.9959,0.7702-18.882,6.5544-28.218,10.965-36.238,17.118-60.047,44.508-66.885,76.945-2.4957,11.838-2.6688,13.598-2.6596,27.023,0.034,49.822,24.502,81.612,76.763,99.737,5.5,1.9074,10.338,3.5345,10.75,3.6157,0.8346,0.1643,1.3909,0.2988,2.5,0.6042,3.9194,1.0793,9.5713,2.4854,34.75,8.6451,15.95,3.902,29.675,7.2453,30.5,7.4296,0.825,0.1842,8.025,1.9562,16,3.9377,29.48,7.3249,34.553,8.5639,36.896,9.0133,1.3181,0.2526,3.7931,0.9063,5.5,1.4526s4.2285,1.2068,5.6035,1.4679,12.625,2.9854,25,6.0538c12.375,3.0685,23.4,5.787,24.5,6.0412,1.1,0.2541,4.7,1.1448,8,1.9793s6.9,1.6936,8,1.9091,6.5,1.5455,12,2.9556c10.393,2.6644,38.881,9.6444,41.5,10.168,4.7318,0.9462,58.918,14.738,61,15.526,1.375,0.5204,3.4,1.1076,4.5,1.3047,1.1,0.1972,2.675,0.6378,3.5,0.9791,0.825,0.3414,5.325,1.7256,10,3.0761,18.184,5.2529,47.374,15.822,62.71,22.706,13.636,6.1212,35.079,17.072,41.79,21.343,25.295,16.096,37.629,25.679,52.841,41.055,19.628,19.84,34.857,42.791,47.774,72,1.8707,4.2302,8.6866,25.26,9.8852,30.5,0.6919,3.025,1.5756,6.0984,1.9637,6.8297,0.388,0.7313,0.705-140.34,0.7043-313.5v-314.83l367.76-0.002c202.27-0.001,367.98,0.34545,368.24,0.76988,0.6446,1.0431,0.5041,180.89-0.1418,181.54-0.2807,0.2806-117.29,0.5081-260.02,0.5054h-259.51v116.68,116.68l226.04-0.087c124.32-0.048,226.75,0.1643,227.63,0.4712,1.4386,0.5046,1.5855,8.9245,1.5349,88-0.031,48.093-0.088,89.13-0.1281,91.192l-0.072,3.75h-227.5-227.5v223,223h-108c-85.689,0-108.02-0.2582-108.08-1.25-0.046-0.6875-0.1206-59.412-0.1655-130.5-0.045-71.088-0.4293-129.25-0.854-129.25-0.4248,0-0.7587,0.7875-0.7421,1.75,0.11,6.37-11.649,43.309-18.862,59.25-15.98,35.319-32.813,59.719-59.709,86.55-13.884,13.851-26.854,24.832-39.584,33.516-3.575,2.4386-6.725,4.6942-7,5.0123-1.9352,2.2388-45.536,26.811-49.245,27.754-0.4097,0.1041-3.1097,1.2911-6,2.6378-22.128,10.311-65.496,24.665-90.755,30.04-14.708,3.1297-26.402,5.452-30,5.9577-2.475,0.3478-5.175,0.8086-6,1.024-2.6719,0.6975-16.17,2.6203-28.5,4.06-3.3,0.3853-6.7103,0.828-7.5785,0.9839-0.8681,0.1558-5.3681,0.6043-10,0.9966-4.6318,0.3924-10.222,0.8811-12.422,1.086-5.4311,0.506-69.163,1.3769-69.629,0.9515z" fill="#fefefe"/>
</svg>
